control3min_grf.mot
version=1
nRows=12
nColumns 19
inDegrees=yes
endheader
time	1_ground_force_vx	1_ground_force_vy	1_ground_force_vz	1_ground_force_px	1_ground_force_py	1_ground_force_pz	1_ground_torque_x	1_ground_torque_y	1_ground_torque_z	2_ground_force_vx	2_ground_force_vy	2_ground_force_vz	2_ground_force_px	2_ground_force_py	2_ground_force_pz	2_ground_torque_x	2_ground_torque_y	2_ground_torque_z
            1.253500	            1.633483	          105.350584	          -17.069758	           -0.254706	            0.006340	           -0.433555	            0.007597	            0.489988	           -0.079392	            1.214726	           93.680349	           16.242412	           -0.265443	            0.005744	           -0.758968	           -0.034672	           -2.673938	           -0.463611
            1.254000	            1.541848	          104.449435	          -17.119252	           -0.253652	            0.006323	           -0.429547	            0.007186	            0.486799	           -0.079786	            1.318313	           90.919124	           16.044804	           -0.264836	            0.005747	           -0.759231	           -0.039323	           -2.711971	           -0.478591
            1.254500	            1.588202	          101.024593	          -17.179907	           -0.253294	            0.006324	           -0.429731	            0.006535	            0.415717	           -0.070696	            1.330337	           87.603952	           16.173762	           -0.265239	            0.005740	           -0.757716	           -0.040670	           -2.678126	           -0.494445
            1.255000	            1.681245	           97.958718	          -16.872284	           -0.254372	            0.006331	           -0.431402	            0.007829	            0.456144	           -0.078566	            1.433177	           85.027553	           15.789098	           -0.264417	            0.005749	           -0.759444	           -0.045265	           -2.685485	           -0.498678
            1.255500	            1.544437	           95.254313	          -16.791825	           -0.253753	            0.006325	           -0.430061	            0.007964	            0.491205	           -0.086592	            1.306105	           81.342572	           16.198370	           -0.262878	            0.005748	           -0.757445	           -0.043130	           -2.686109	           -0.534906
            1.256000	            1.361951	           91.648571	          -16.715118	           -0.254028	            0.006332	           -0.431590	            0.007034	            0.473303	           -0.086322	            1.271780	           77.844430	           15.951265	           -0.264218	            0.005742	           -0.757174	           -0.044367	           -2.715631	           -0.556466
            1.256500	            1.455580	           87.860846	          -16.227162	           -0.254041	            0.006341	           -0.433802	            0.009221	            0.556618	           -0.102803	            1.185371	           75.818619	           15.897149	           -0.262782	            0.005753	           -0.758811	           -0.041785	           -2.672657	           -0.560385
            1.257000	            1.410797	           86.417336	          -15.912241	           -0.254128	            0.006322	           -0.429255	            0.007856	            0.481235	           -0.088611	            1.244122	           72.504621	           15.744518	           -0.261213	            0.005748	           -0.755690	           -0.044862	           -2.614433	           -0.567729
            1.257500	            1.320111	           82.811415	          -15.789905	           -0.253774	            0.006329	           -0.430889	            0.007020	            0.440379	           -0.083968	            1.254694	           69.558750	           15.593220	           -0.262087	            0.005746	           -0.756210	           -0.047653	           -2.641825	           -0.592227
            1.258000	            1.228317	           80.288661	          -16.029778	           -0.253379	            0.006336	           -0.432581	            0.005929	            0.387532	           -0.077371	            1.073153	           67.901750	           15.305818	           -0.259700	            0.005762	           -0.758107	           -0.041828	           -2.646591	           -0.596571
            1.258500	            1.046169	           77.943795	          -15.718380	           -0.253260	            0.006325	           -0.430056	            0.004368	            0.325462	           -0.065634	            1.220452	           66.059937	           15.533828	           -0.258563	            0.005766	           -0.758079	           -0.047842	           -2.589549	           -0.608926
            1.259000	            1.184680	           75.058785	          -15.547665	           -0.252436	            0.006328	           -0.430651	            0.006433	            0.407567	           -0.084423	            0.903054	           63.113042	           15.335742	           -0.259098	            0.005765	           -0.758530	           -0.036194	           -2.529539	           -0.614649
